<svg width="200" height="200" fill="none" xmlns="http://www.w3.org/2000/svg"><path d="M127.3 137.4c30.376 0 55-24.624 55-55s-24.624-55-55-55-55 24.624-55 55 24.624 55 55 55z" fill="#EFEFEB"/><path d="M185.7 137.1c-.6-7.8-2.6-15-8.4-19.9-11.7-9.8-30.6-15.1-32.4-33.6-.4-4.3 0-14.2 5.6-14.5 14.7-.6-.5 23.5-3.7 27.9-9.8 13.4-27 28.3-42.9 14.6M85.6 56.4c2.6-2.5 5.2-5.1 6.6-8.4 1.4-3.3 1.4-7.5-1-10.2-2.4-2.7-7.5-2.7-9.2.5-1.4 2.6 0 6 2.5 7.7 2.4 1.7 5.6 1.9 8.5 1.7 10.6-.6 20.3-5.7 30.4-8.7 10.1-3 22.4-3.4 30 3.9 2.4 2.3 4.3 5.6 3.8 8.9-.4 3.3-3.8 6.3-7.1 5.4-4.3-1.3-4.6-7.1-5.1-11.6-1-9.5-7.4-18.2-16-22.2s-19.4-3-27.3 2.4m66.1 56.6c0-8 6.5-14.6 14.6-14.6S197 74.3 197 82.4 190.4 97 182.4 97c-5 0-9.4-2.5-12-6.4M127.3 72c.4-1.5 1.2-3 2.4-4.1 1.1-1 2.7-1.6 4.1-1.1 1.3.4 2.2 1.7 2.5 3 .4 1.3.3 2.7.2 4m-38.2-1c0-1.5 0-3.2.7-4.6.4-.9 1.2-1.7 2.3-1.9 1.3-.2 2.6.6 3.2 1.7.7 1.1.9 2.4 1.1 3.7m2.7 26.4c3.1 2.4 7.4 3.1 11.1 1.8m13.3-44.7c2.2.4 4.2 1.5 5.7 3.2" stroke="#262D44" stroke-width="2.5" stroke-miterlimit="10" stroke-linecap="square"/><path d="M14 127.1c6.627 0 12-5.373 12-12s-5.373-12-12-12-12 5.373-12 12 5.373 12 12 12z" fill="#456ADD"/><path d="M12.2 168.5c-3.3-14.6-4-29.9-1.5-44.7.5-3.3 1.3-6.7 3.5-9.2 3.2-3.5 8.4-4.2 13.2-4.5 18.1-1.1 36.2-1.1 54.2.1 2.4.2 4.8.4 6.9 1.5 4.3 2.5 5.3 8.2 5.8 13.1 1.5 14.7 3 29.5 4.4 44.2.2 1.8.4 3.8 1.6 5.2 1.4 1.6 3.6 2.1 5.7 2.1 7 .2 14.2-3.8 18-9.7 7.2-11.3-10.4-5.8-15.9-3.2-5.7 2.8-11 6.5-16.7 9.2-23.2 10.9-49.3 4.7-73.8 3.9m97.1-115.7c-1.3 9.3-1.6 18.7-.7 28 3.8.2 7.6.3 11.3.5m50.2-3.6c1.4 1.1 2.8 2.1 4.3 3.1.1.1.2.1.4.1.1 0 .2-.1.3-.2 2.9-3.2 5.8-6.3 8.7-9.5" stroke="#262D44" stroke-width="2.5" stroke-miterlimit="10" stroke-linecap="square"/></svg>