<svg width="200" height="200" fill="none" xmlns="http://www.w3.org/2000/svg"><path d="M67 171c30.376 0 55-24.624 55-55S97.376 61 67 61s-55 24.624-55 55 24.624 55 55 55z" fill="#EFEFEB"/><path d="M153.8 65.8c7.566 0 13.7-6.134 13.7-13.7 0-7.566-6.134-13.7-13.7-13.7-7.566 0-13.7 6.134-13.7 13.7 0 7.566 6.134 13.7 13.7 13.7z" fill="#5CDDB6"/><path d="M29.7 67.8c4.4-6 11-13.3 18.5-15.2 2-.5 4.3-.6 6.1.5 2.1 1.2 3.1 3.7 3.3 6.2.2 2.5-.6 4.8-1.3 7.1-.9 3.2-1.9 6.4-2.8 9.6-.9 2.9-2.4 6.4-5.4 6.4-.5 0-1-.1-1.3-.4-.8-.8-.2-2 .3-3 4.2-6.6 9.3-12.6 15.1-17.8 2.6-2.3 5.7-4.5 9.1-4.2 4.5.4 7.6 5.3 7.6 9.9 0 4.6-2.4 8.8-4.7 12.7 12.5-17.8 25.8-35.5 43.6-48.1 1.8-1.3 4.5-2.4 5.9-.6.7.9.6 2.2.4 3.4-.8 3.7-2.4 7.2-4.1 10.6-3.9 8-8.3 15.9-12.7 23.7-10 17.8-20 35.5-30 53.2-2.6 4.5-5.2 9.1-8.1 13.4-.6.8-1.2 1.7-2.2 2-1.3.4-2.8-.6-3.3-1.9-.5-1.3-.2-2.8.6-4 1.2-2.1 3.4-3.4 5.6-4.5 8.6-4.4 18.1-7.2 27.7-8.2 2.1-.2 4.4-.3 6.4.4s3.8 2.6 3.8 4.7c.1 2.6-2.2 4.5-4.3 6.1-11.2 8.3-23.1 16.7-35.7 23m106.1-46c7.124 0 12.9-5.776 12.9-12.9 0-7.125-5.776-12.9-12.9-12.9-7.124 0-12.9 5.775-12.9 12.9 0 7.124 5.776 12.9 12.9 12.9z" stroke="#262D44" stroke-width="2.5" stroke-miterlimit="10" stroke-linecap="square"/><path d="M169.5 92a1.5 1.5 0 100-3 1.5 1.5 0 000 3zm8.5.9a1.5 1.5 0 100-3 1.5 1.5 0 000 3z" fill="#262D44"/><path d="M167.8 96.8c.9 2.1 3.1 3.6 5.3 3.7 2.3.1 4.5-1.2 5.6-3.2m-17.5 44.5c-1.4-.1-2.9-.1-4.3.3-.7.2-1.3.5-1.8 1-.9.9-1.4 2.2-1.2 3.4.2 1.2 1.3 2.3 2.6 2.4.9.1 1.7-.3 2.4-.9.6-.6 1.1-1.3 1.4-2.1 1.6-3.7.8-14.6 1.6-15.9.7-1 9.3-7.6 11.1-7.4.9.1.4 11.5.3 14.1 0 1-.1 2.1-.4 3-.3.9-.9 1.9-1.9 2.3-1.4.6-3.2-.2-3.7-1.6-.7-1.9.7-3.6 2.5-4 1-.2 2.2-.2 3.2.1" stroke="#262D44" stroke-width="2.5" stroke-miterlimit="10" stroke-linecap="square"/><path d="M156.743 64c.757 1.579 1.481 5.308 0 5.308-2.119 0-3.122-1.627-4.497-3.039-1.249-1.28-2.376-2.479-4.008-.69-1.037 1.136-2.536 3.075-3.798 3.868-4.418 2.774-1.987-5.697-1.47-7.356 1.206-3.867-4.97-3.567-4.97-6.924 0-1.969 3.581-1.805 4.97-2.262 2.474-.814 2.255-1.23 4.03-3.505.602-1.272 1.238-2.763 2.271-4.093 1.582-1.56 3.096 3.29 3.465 4.11.502 1.114.432 3.108 2.135 3.108 2.298 0 4.7-.157 6.913.328 6.409 1.405-.945 5.766-2.284 6.647" stroke="#262D44" stroke-width="2.5" stroke-linecap="square" stroke-linejoin="round"/></svg>