<svg width="200" height="200" fill="none" xmlns="http://www.w3.org/2000/svg"><path d="M81 132c30.376 0 55-24.624 55-55s-24.624-55-55-55-55 24.624-55 55 24.624 55 55 55z" fill="#EFEFEB"/><path d="M144.7 56.9c6.627 0 12-5.373 12-12s-5.373-12-12-12-12 5.373-12 12 5.373 12 12 12z" fill="#FC695D"/><path d="M79.6 153.3c-8.6.5-18.3.8-25.6-4.7-4.7-3.5-7.6-8.9-9.2-14.5-1.6-5.6-1.8-11.5-2.1-17.3-.7-16-1.3-32.1-.5-48.2.2-4.9.6-9.8 2-14.5 1.4-4.7 4-9.2 7.9-12.1 6.1-4.6 14.3-4.8 22-4.9 12.6-.2 33.5-2.1 40.6 11.1 2.3 4.3 3.1 9.1 3.8 13.9 2.6 20 2.8 40.2 2.5 60.4-.1 7.4-.3 14.8-1.6 22-.5 2.8-1.2 5.6-2.9 7.9-1 1.2-2.5 2.3-4 1.9-2-.5-2.6-3-2.8-5.1-.8-10.5.2-21 .8-31.5.4-6.4.7-12.9 2.2-19.2 1.5-6.3 4.4-12.4 9.3-16.6 6.5-5.7 15.6-7.3 24.2-7.6 6.2-.2 12.8.4 17.9 3.9 7.1 4.9 9.6 14 10.9 22.5 3.3 20.3 2.9 41.1-1.5 61.2-.8 3.6-1.8 7.4-4.2 10.1-2.7 3.1-6.8 4.5-10.7 5.3-12.1 2.6-25.9.9-36.4-5.8" stroke="#262D44" stroke-width="2.5" stroke-miterlimit="10" stroke-linecap="square"/><path d="M53.6 147.8c2.3-14 4.7-28.3 11.1-41 2-4.1 4.5-8 7.9-11.1 3.4-3.1 7.7-5.2 12.3-5.2 6.8 0 13.3 5.1 14.8 11.8m-14-19.8c-3.9 2.3-9.3.6-12.2-3-2.9-3.5-3.8-8.3-3.8-12.8-.1-4.6.9-9.8 4.7-12.3 3.1-2.1 7.2-1.8 10.6-.4 3.2 1.3 6.1 3.7 7.6 6.8 2.9 5.8-1.2 18.3-6.9 21.7zm42.5 62.3c7.1-5.1 16.4-6.3 25-4.7 8.6 1.6 15 4.7 22.3 9.4M137.2 121c.6 2 2.7 3.4 4.7 3.3 2.1-.1 4-1.7 4.4-3.7" stroke="#262D44" stroke-width="2.5" stroke-miterlimit="10" stroke-linecap="square"/><path d="M141.7 130c6.13 0 11.1-4.97 11.1-11.1s-4.97-11.1-11.1-11.1-11.1 4.97-11.1 11.1 4.97 11.1 11.1 11.1zM76.6 73.6c.6 2 2.7 3.4 4.7 3.3 2.1-.1 4-1.7 4.4-3.7m75.8-19.6c0 1.1.1 2.3-.1 3.4-.2 1.4-.8 2.7-2.1 3.4-.9.5-2 .7-3.1.9-3.8.5-7.7.3-11.5-.5-.8-.2-1.7-.4-2.3-1-.6-.6-.8-1.4-.9-2.2-.6-3.2-.6-6.6 0-9.8.1-.7.4-1.5 1-1.9.4-.3 1-.3 1.5-.4 3.7-.3 7.5-.5 11.2-.5 1.9 0 3.8.1 5.5.9 1.6.8 2.7 2.2 3.7 3.6.9 1.5 1.6 3.1 2.4 4.6 1 1.8 2.2 3.5 3.6 5 1.1 1.2 1.6-.3 1.7-1.3.4-3.2.5-6.4.3-9.6 0-.3-.2-.8-.5-.7-.1 0-.2.1-.3.2-2.8 2.6-2.1 2.2-4.9 5" stroke="#262D44" stroke-width="2.5" stroke-miterlimit="10" stroke-linecap="square"/></svg>