<svg width="185" height="51" viewBox="0 0 185 51" fill="none" xmlns="http://www.w3.org/2000/svg">
  <path
    id="icon-fill"
    d="M42.9144 39.3989C51.6276 27.5869 50.3856 11.7923 40.1404 4.12055C29.8951 -3.55115 14.5262 -0.194768 5.81303 11.6172C-2.90018 23.4292 -1.65819 39.2239 8.58707 46.8956C18.8323 54.5673 34.2012 51.2109 42.9144 39.3989Z"
    fill="white"
  />
  <path
    d="M21.9389 46.7638C17.0062 46.7638 12.191 44.6812 8.92599 41.1076C5.54356 37.3921 3.82886 32.1619 4.25166 26.7661C4.604 21.9619 6.67104 17.0867 10.03 12.9925C12.9191 9.48998 16.4425 6.88673 20.2477 5.46678C24.4993 3.8575 29.0561 3.73917 33.0493 5.13546C36.878 6.46075 40.2134 9.25332 42.2335 12.8032C44.2536 16.3294 44.9582 20.6603 44.1831 24.6598C43.2201 29.5113 39.6967 34.7652 34.2237 34.8362C31.405 34.8835 29.1031 33.4872 26.8951 32.1619C26.0965 31.6886 25.3449 31.2389 24.5932 30.8366C24.0764 32.3276 23.4188 33.7949 22.5262 35.1675C21.6101 36.5874 20.6236 37.5814 19.4961 38.244C17.9458 39.1433 16.1136 39.309 14.6338 38.6937C12.3084 37.7234 11.0165 34.7888 11.7447 32.1856C12.2614 30.3633 13.4829 28.8487 15.268 27.8547C17.3116 26.7188 19.9893 26.3164 22.4322 26.6951C22.5731 26.1744 22.6906 25.6538 22.8315 25.1331V25.1095C22.855 25.0385 23.0194 24.3522 23.3013 23.3819C22.9725 23.2399 22.6436 23.0979 22.3148 22.9322C19.2377 21.3703 17.0062 18.9563 15.0332 16.8264L17.4055 14.6018C19.637 17.0157 21.3752 18.8143 23.7476 19.9976C23.912 20.0923 24.0999 20.1633 24.2644 20.2343C24.8281 18.625 25.5093 16.9447 26.2374 15.8324C27.13 14.4125 28.1166 13.3949 29.244 12.7322C30.7943 11.8092 32.603 11.6436 34.1063 12.2589C36.4317 13.2055 37.7471 16.1164 37.0189 18.7433C36.4552 20.8259 34.764 22.6482 32.462 23.5949C30.6064 24.3758 28.5159 24.5888 26.3784 24.2338C26.1905 24.8965 26.026 25.4881 25.9321 25.8668V25.9141C25.7912 26.4821 25.6267 27.0737 25.4858 27.6417C26.5428 28.1387 27.5293 28.7304 28.5159 29.322C30.4185 30.458 32.2037 31.5466 34.0828 31.5466C34.1063 31.5466 34.1298 31.5466 34.1533 31.5466C36.7371 31.5229 39.9786 29.1327 40.9886 23.9972C41.6228 20.7549 41.0591 17.2524 39.4148 14.3888C37.7706 11.5252 35.0693 9.27699 31.9688 8.18836C28.6803 7.05239 24.8986 7.14706 21.3517 8.47235C18.0632 9.70297 15.0097 11.9749 12.4963 15.0278C9.56019 18.6013 7.75154 22.8375 7.44618 26.9791C7.11733 31.4283 8.55016 35.8538 11.2749 38.8594C14.0701 41.9123 18.2746 43.6399 22.5262 43.4505C26.6368 43.2612 30.7943 41.2733 33.6365 38.0784L36.0324 40.2556C32.556 44.1369 27.6938 46.4798 22.6671 46.6928C22.4557 46.7638 22.1973 46.7638 21.9389 46.7638ZM20.6236 29.819C19.2612 29.819 17.8753 30.1266 16.8418 30.7183C15.8083 31.2863 15.1271 32.0909 14.8687 33.0612C14.5869 34.1025 15.0566 35.3331 15.8788 35.6881C16.4425 35.9248 17.1941 35.8301 17.8753 35.4278C18.5565 35.0491 19.1672 34.3865 19.8014 33.4162C20.5061 32.3276 21.0464 31.1443 21.4926 29.89C21.2108 29.8427 20.9289 29.819 20.6236 29.819ZM27.4354 21.1099C28.7978 21.2519 30.1131 21.0863 31.2641 20.613C32.6265 20.045 33.6365 19.0273 33.9419 17.915C34.2237 16.8737 33.7305 15.6431 32.9083 15.3118C32.3446 15.0751 31.593 15.1935 30.9118 15.5958C30.2541 15.9981 29.6199 16.6607 28.9857 17.631C28.4689 18.4357 27.9287 19.761 27.4354 21.1099Z"
    fill="#456ADD"
  />
  <path d="M62.6923 35.8301H58.4878V14.8148H62.6923V35.8301Z" fill="#456ADD" />
  <path
    d="M79.0408 28.967C79.0408 33.1559 76.1751 36.1141 72.0645 36.1141C67.9774 36.1141 65.1353 33.1796 65.1353 28.967V21.0863H69.2928V28.967C69.2928 30.8603 70.3733 32.0673 72.0645 32.0673C73.7557 32.0673 74.8362 30.8603 74.8362 28.967V21.0863H79.0408V28.967Z"
    fill="#456ADD"
  />
  <path
    d="M95.9999 27.476V35.8064H91.7954V27.9967C91.7954 26.0797 90.6444 24.8254 88.9062 24.8254C87.1445 24.8254 86.0171 26.0797 86.0171 27.9967V35.8064H81.8125V21.0862H86.0171V23.0032C86.9331 21.5832 88.319 20.7786 89.9867 20.7786C93.7215 20.7786 95.9999 23.3108 95.9999 27.476Z"
    fill="#456ADD"
  />
  <path
    d="M105.701 36.1141C101.332 36.1141 98.02 32.8482 98.02 28.47C98.02 24.0918 101.332 20.7786 105.701 20.7786C108.567 20.7786 110.963 22.2222 112.137 24.3994L108.59 26.4347C108.05 25.4407 106.993 24.8254 105.701 24.8254C103.61 24.8254 102.131 26.3874 102.131 28.4463C102.131 30.4816 103.61 32.0435 105.701 32.0435C107.134 32.0435 108.285 31.3572 108.849 30.1739L112.56 31.8542C111.479 34.4338 108.825 36.1141 105.701 36.1141Z"
    fill="#456ADD"
  />
  <path
    d="M128.11 27.4761V35.8065H123.905V27.9967C123.905 26.0798 122.754 24.8255 121.016 24.8255C119.254 24.8255 118.127 26.0798 118.127 27.9967V35.8065H113.922V14.8148H118.15V23.0032C119.066 21.5833 120.452 20.7786 122.12 20.7786C125.855 20.7786 128.11 23.3109 128.11 27.4761Z"
    fill="#456ADD"
  />
  <path
    d="M137.834 36.1141C133.465 36.1141 130.153 32.8482 130.153 28.47C130.153 24.0918 133.465 20.7786 137.834 20.7786C140.7 20.7786 143.096 22.2222 144.27 24.3994L140.723 26.4347C140.183 25.4407 139.126 24.8254 137.834 24.8254C135.743 24.8254 134.264 26.3874 134.264 28.4463C134.264 30.4816 135.743 32.0435 137.834 32.0435C139.267 32.0435 140.418 31.3572 140.982 30.1739L144.693 31.8542C143.612 34.4338 140.958 36.1141 137.834 36.1141Z"
    fill="#456ADD"
  />
  <path d="M150.283 35.8301H146.079V14.8148H150.283V35.8301Z" fill="#456ADD" />
  <path
    d="M166.632 28.967C166.632 33.1559 163.766 36.1141 159.655 36.1141C155.568 36.1141 152.726 33.1796 152.726 28.967V21.0863H156.884V28.967C156.884 30.8603 157.964 32.0673 159.655 32.0673C161.346 32.0673 162.427 30.8603 162.427 28.967V21.0863H166.632V28.967Z"
    fill="#456ADD"
  />
  <path
    d="M185 28.4464C185 32.6826 181.993 36.1378 178.212 36.1378C176.192 36.1378 174.618 35.3095 173.608 33.7712V35.8301H169.403V14.8148H173.608V23.1452C174.618 21.6069 176.192 20.7786 178.212 20.7786C181.993 20.7786 185 24.2102 185 28.4464ZM180.913 28.4464C180.913 26.4348 179.269 24.8255 177.249 24.8255C175.205 24.8255 173.584 26.4111 173.584 28.4464C173.584 30.5053 175.182 32.0673 177.249 32.0673C179.292 32.0673 180.913 30.4816 180.913 28.4464Z"
    fill="#456ADD"
  />
</svg>
